<?xml version="1.0" encoding="utf-8"?>
<svg id="master-artboard" viewBox="0 0 1400 422" version="1.1" xmlns="http://www.w3.org/2000/svg" x="0px" y="0px" style="enable-background:new 0 0 336 235.2;" width="1400px" height="422px"><rect id="ee-background" x="0" y="0" width="1400" height="422" style="fill: white; fill-opacity: 0; pointer-events: none;"/><path d="M 152.3308868408203 159.28038024902344 L 436.22467041015625 159.28038024902344 C 436.22467041015625 159.28038024902344 444.6576843261719 155.88780212402344 462.75140380859375 170.02352905273438 C 480.8451232910156 184.1592559814453 453.7044677734375 186.4209747314453 537.3880004882812 186.4209747314453 L 802.6923217773438 186.4209747314453 C 802.6923217773438 186.4209747314453 826.8876953125 185.2901153564453 844.9813842773438 208.4727020263672 C 863.0750732421875 231.65528869628906 857.4208374023438 247.4873046875 857.9862670898438 270.1044616699219 L 857.9862670898438 742.2461547851562 C 857.9862670898438 742.2461547851562 860.8134155273438 767.1165771484375 847.8085327148438 789.1682739257812 C 834.8036499023438 811.219970703125 813.8827514648438 812.916259765625 786.1767578125 814.047119140625 L 152.88722229003906 814.047119140625 C 152.88722229003906 814.047119140625 131.4100341796875 805.5656127929688 122.3631591796875 793.126220703125 C 113.3162841796875 780.6868286132812 107.66200256347656 772.770751953125 106.53114318847656 751.8499145507812 L 106.53114318847656 220.3455047607422 C 106.53114318847656 220.3455047607422 109.35829162597656 191.5098114013672 121.7977294921875 177.9395294189453 C 134.23716735839844 164.36924743652344 152.3308868408203 159.28038024902344 152.3308868408203 159.28038024902344 Z" style="fill: rgb(219, 186, 0); fill-opacity: 1; stroke: rgb(219, 186, 0); stroke-opacity: 1; stroke-width: 1; paint-order: fill;" transform="matrix(0.5938302874565125, 0, 0, 0.5938302874565125, -59.766719818115234, -88.58233642578125)"/><path d="M 132.82308959960938 347.8681640625 L 406.25506591796875 347.8681640625 C 406.25506591796875 347.8681640625 434.5687561035156 345.3370666503906 443.81475830078125 324.5335388183594 C 453.0607604980469 303.7300109863281 447.281982421875 319.9105529785156 455.37225341796875 288.7052307128906 L 785.1876831054688 288.7052307128906 C 785.1876831054688 288.7052307128906 804.9873657226562 288.12738037109375 817.1227416992188 307.197265625 C 829.2581176757812 326.26715087890625 826.9465942382812 318.7547912597656 833.881103515625 340.1361999511719 L 833.881103515625 769.49853515625 C 833.881103515625 769.49853515625 835.0368041992188 788.5680541992188 817.7005615234375 803.0149536132812 C 800.3643188476562 817.4618530273438 806.1431274414062 821.5070190429688 763.9581298828125 822.0848999023438 L 135.22225952148438 822.0848999023438 C 135.22225952148438 822.0848999023438 116.15899658203125 818.039794921875 106.33509826660156 806.4822387695312 C 96.51119995117188 794.9246826171875 84.95368194580078 789.1459350585938 82.06430053710938 753.8955078125 L 82.06430053710938 400.2121887207031 C 82.06430053710938 400.2121887207031 88.99880981445312 377.12030029296875 98.24482727050781 367.874267578125 C 107.4908447265625 358.62823486328125 130.60589599609375 347.6485900878906 132.82308959960938 347.8681640625 Z" style="fill: rgb(252, 214, 0); fill-opacity: 1; stroke: rgb(252, 214, 0); stroke-opacity: 1; stroke-width: 1; paint-order: fill;" transform="matrix(0.5938305258750916, 0, 0, 0.5938305258750916, -45.23756790161133, -105.93841552734375)"/><path d="M 244.2607421875 372.9200134277344 L 246.82073974609375 372.9200134277344 C 248.02740478515625 372.9200134277344 248.90074157714844 373.1000061035156 249.44073486328125 373.4599914550781 C 249.98074340820312 373.82000732421875 250.25074768066406 374.3900146484375 250.25074768066406 375.1700134277344 C 250.25074768066406 375.7033386230469 250.10073852539062 376.14666748046875 249.8007354736328 376.5 C 249.50074768066406 376.8466796875 249.0607452392578 377.0733337402344 248.48074340820312 377.17999267578125 L 248.48074340820312 377.239990234375 C 249.86074829101562 377.47332763671875 250.5507354736328 378.20001220703125 250.5507354736328 379.4200134277344 C 250.5507354736328 380.2266540527344 250.27740478515625 380.8599853515625 249.73074340820312 381.32000732421875 C 249.18408203125 381.7733459472656 248.4174041748047 382 247.4307403564453 382 L 244.2607421875 382 L 244.2607421875 372.9200134277344 M 245.32073974609375 376.80999755859375 L 247.0507354736328 376.80999755859375 C 247.7974090576172 376.80999755859375 248.33407592773438 376.69000244140625 248.66073608398438 376.45001220703125 C 248.98741149902344 376.2166748046875 249.15074157714844 375.8233337402344 249.15074157714844 375.2699890136719 C 249.15074157714844 374.7633361816406 248.9707489013672 374.39666748046875 248.61074829101562 374.1700134277344 C 248.24407958984375 373.9433288574219 247.66407775878906 373.8299865722656 246.87074279785156 373.8299865722656 L 245.32073974609375 373.8299865722656 L 245.32073974609375 376.80999755859375 M 245.32073974609375 377.70001220703125 L 245.32073974609375 381.1000061035156 L 247.2107391357422 381.1000061035156 C 247.94407653808594 381.1000061035156 248.49740600585938 380.9566650390625 248.87074279785156 380.6700134277344 C 249.23741149902344 380.3900146484375 249.42074584960938 379.9466552734375 249.42074584960938 379.3399963378906 C 249.42074584960938 378.7799987792969 249.23074340820312 378.3666687011719 248.85073852539062 378.1000061035156 C 248.4707489013672 377.8333435058594 247.89407348632812 377.70001220703125 247.12074279785156 377.70001220703125 L 245.32073974609375 377.70001220703125 ZM 256.77777099609375 382 L 256.5777587890625 381.0299987792969 L 256.52777099609375 381.0299987792969 C 256.187744140625 381.4566650390625 255.84776306152344 381.7466735839844 255.50775146484375 381.8999938964844 C 255.16775512695312 382.0466613769531 254.7477569580078 382.1199951171875 254.2477569580078 382.1199951171875 C 253.56776428222656 382.1199951171875 253.03775024414062 381.9466552734375 252.6577606201172 381.6000061035156 C 252.27108764648438 381.2533264160156 252.0777587890625 380.760009765625 252.0777587890625 380.1199951171875 C 252.0777587890625 378.739990234375 253.17774963378906 378.0199890136719 255.3777618408203 377.9599914550781 L 256.5377502441406 377.9200134277344 L 256.5377502441406 377.5 C 256.5377502441406 376.9599914550781 256.42108154296875 376.5633239746094 256.187744140625 376.30999755859375 C 255.96109008789062 376.0566711425781 255.59442138671875 375.92999267578125 255.08775329589844 375.92999267578125 C 254.52108764648438 375.92999267578125 253.88108825683594 376.10333251953125 253.16775512695312 376.45001220703125 L 252.84776306152344 375.6600036621094 C 253.18109130859375 375.4800109863281 253.54776000976562 375.336669921875 253.94775390625 375.2300109863281 C 254.34776306152344 375.1300048828125 254.7477569580078 375.0799865722656 255.1477508544922 375.0799865722656 C 255.96109008789062 375.0799865722656 256.5644226074219 375.260009765625 256.957763671875 375.6199951171875 C 257.3511047363281 375.9800109863281 257.5477600097656 376.5566711425781 257.5477600097656 377.3500061035156 L 257.5477600097656 382 L 256.77777099609375 382 M 254.44775390625 381.2699890136719 C 255.08775329589844 381.2699890136719 255.59109497070312 381.09332275390625 255.957763671875 380.739990234375 C 256.3244323730469 380.3933410644531 256.50775146484375 379.9033203125 256.50775146484375 379.2699890136719 L 256.50775146484375 378.6499938964844 L 255.47775268554688 378.69000244140625 C 254.6577606201172 378.72332763671875 254.06776428222656 378.85333251953125 253.707763671875 379.0799865722656 C 253.34776306152344 379.3066711425781 253.16775512695312 379.65667724609375 253.16775512695312 380.1300048828125 C 253.16775512695312 380.5033264160156 253.2777557373047 380.7866516113281 253.4977569580078 380.9800109863281 C 253.72442626953125 381.17333984375 254.0410919189453 381.2699890136719 254.44775390625 381.2699890136719 ZM 262.3843994140625 382.1199951171875 C 261.4043884277344 382.1199951171875 260.6444091796875 381.8166809082031 260.1044006347656 381.2099914550781 C 259.5577392578125 380.60333251953125 259.2843933105469 379.7466735839844 259.2843933105469 378.6400146484375 C 259.2843933105469 377.5 259.5610656738281 376.6199951171875 260.1144104003906 376 C 260.66107177734375 375.3800048828125 261.4410705566406 375.07000732421875 262.45440673828125 375.07000732421875 C 262.78106689453125 375.07000732421875 263.10772705078125 375.10333251953125 263.43438720703125 375.1700134277344 C 263.7677307128906 375.24334716796875 264.0277404785156 375.32666015625 264.21441650390625 375.4200134277344 L 263.8944091796875 376.29998779296875 C 263.667724609375 376.2066650390625 263.417724609375 376.1300048828125 263.1444091796875 376.07000732421875 C 262.87774658203125 376.010009765625 262.6410827636719 375.9800109863281 262.43438720703125 375.9800109863281 C 261.0477294921875 375.9800109863281 260.3544006347656 376.86334228515625 260.3544006347656 378.6300048828125 C 260.3544006347656 379.4633483886719 260.5244140625 380.10333251953125 260.8644104003906 380.54998779296875 C 261.20440673828125 380.9966735839844 261.70440673828125 381.2200012207031 262.3644104003906 381.2200012207031 C 262.9310607910156 381.2200012207031 263.514404296875 381.1000061035156 264.1144104003906 380.8599853515625 L 264.1144104003906 381.7699890136719 C 263.6543884277344 382.0033264160156 263.0777282714844 382.1199951171875 262.3843994140625 382.1199951171875 ZM 267.0465393066406 378.510009765625 C 267.2265625 378.2633361816406 267.4998779296875 377.9333190917969 267.8665466308594 377.5199890136719 L 270.0665588378906 375.19000244140625 L 271.28656005859375 375.19000244140625 L 268.52655029296875 378.0899963378906 L 271.4765625 382 L 270.2265625 382 L 267.8265686035156 378.7799987792969 L 267.0465393066406 379.45001220703125 L 267.0465393066406 382 L 266.02655029296875 382 L 266.02655029296875 372.3299865722656 L 267.0465393066406 372.3299865722656 L 267.0465393066406 377.4599914550781 C 267.0465393066406 377.6866760253906 267.0298767089844 378.0366516113281 266.9965515136719 378.510009765625 L 267.0465393066406 378.510009765625 ZM 272.5487060546875 382 L 272.5487060546875 372.9200134277344 L 273.60870361328125 372.9200134277344 L 273.60870361328125 382 L 272.5487060546875 382 ZM 278.1239318847656 381.2699890136719 C 278.3105773925781 381.2699890136719 278.48724365234375 381.25665283203125 278.6539306640625 381.2300109863281 C 278.8272705078125 381.2033386230469 278.9606018066406 381.1766662597656 279.0539245605469 381.1499938964844 L 279.0539245605469 381.94000244140625 C 278.947265625 381.99334716796875 278.783935546875 382.0366516113281 278.5639343261719 382.07000732421875 C 278.34393310546875 382.10333251953125 278.1472473144531 382.1199951171875 277.97393798828125 382.1199951171875 C 276.66058349609375 382.1199951171875 276.0039367675781 381.4266662597656 276.0039367675781 380.0400085449219 L 276.0039367675781 375.989990234375 L 275.02392578125 375.989990234375 L 275.02392578125 375.489990234375 L 276.0039367675781 375.07000732421875 L 276.4339294433594 373.6099853515625 L 277.033935546875 373.6099853515625 L 277.033935546875 375.19000244140625 L 279.013916015625 375.19000244140625 L 279.013916015625 375.989990234375 L 277.033935546875 375.989990234375 L 277.033935546875 380 C 277.033935546875 380.40667724609375 277.1305847167969 380.7200012207031 277.32391357421875 380.94000244140625 C 277.5172424316406 381.1600036621094 277.783935546875 381.2699890136719 278.1239318847656 381.2699890136719 ZM 286.4791564941406 372.9200134277344 L 286.4791564941406 378.7900085449219 C 286.4791564941406 379.8299865722656 286.16583251953125 380.64666748046875 285.5391845703125 381.239990234375 C 284.9125061035156 381.82666015625 284.052490234375 382.1199951171875 282.95916748046875 382.1199951171875 C 281.8658447265625 382.1199951171875 281.0191650390625 381.8233337402344 280.4191589355469 381.2300109863281 C 279.8258361816406 380.6300048828125 279.5291748046875 379.80999755859375 279.5291748046875 378.7699890136719 L 279.5291748046875 372.9200134277344 L 280.57916259765625 372.9200134277344 L 280.57916259765625 378.8399963378906 C 280.57916259765625 379.6000061035156 280.78582763671875 380.1833190917969 281.19915771484375 380.5899963378906 C 281.6125183105469 380.9966735839844 282.2225036621094 381.20001220703125 283.0291748046875 381.20001220703125 C 283.79583740234375 381.20001220703125 284.3858337402344 380.9966735839844 284.7991638183594 380.5899963378906 C 285.2124938964844 380.1766662597656 285.4191589355469 379.5899963378906 285.4191589355469 378.8299865722656 L 285.4191589355469 372.9200134277344 L 286.4791564941406 372.9200134277344 ZM 291.8182678222656 382.1199951171875 C 291.3782653808594 382.1199951171875 290.97491455078125 382.0400085449219 290.6082458496094 381.8800048828125 C 290.2415771484375 381.7133483886719 289.93157958984375 381.4599914550781 289.6782531738281 381.1199951171875 L 289.6082458496094 381.1199951171875 C 289.6549377441406 381.5199890136719 289.6782531738281 381.89666748046875 289.6782531738281 382.25 L 289.6782531738281 385.05999755859375 L 288.64825439453125 385.05999755859375 L 288.64825439453125 375.19000244140625 L 289.4882507324219 375.19000244140625 L 289.63824462890625 376.1199951171875 L 289.6782531738281 376.1199951171875 C 289.9449157714844 375.7466735839844 290.2549133300781 375.4766540527344 290.6082458496094 375.30999755859375 C 290.9615783691406 375.1499938964844 291.36492919921875 375.07000732421875 291.8182678222656 375.07000732421875 C 292.72491455078125 375.07000732421875 293.4216003417969 375.3766784667969 293.90826416015625 375.989990234375 C 294.4015808105469 376.6099853515625 294.64825439453125 377.4766540527344 294.64825439453125 378.5899963378906 C 294.64825439453125 379.7099914550781 294.39825439453125 380.5799865722656 293.89825439453125 381.20001220703125 C 293.39825439453125 381.8133239746094 292.7049255371094 382.1199951171875 291.8182678222656 382.1199951171875 M 291.6682434082031 375.94000244140625 C 290.97491455078125 375.94000244140625 290.4715881347656 376.1333312988281 290.15826416015625 376.5199890136719 C 289.8515930175781 376.90667724609375 289.69158935546875 377.5199890136719 289.6782531738281 378.3599853515625 L 289.6782531738281 378.5899963378906 C 289.6782531738281 379.5433349609375 289.8382568359375 380.2266540527344 290.15826416015625 380.6400146484375 C 290.478271484375 381.0533447265625 290.9915771484375 381.260009765625 291.6982727050781 381.260009765625 C 292.284912109375 381.260009765625 292.74493408203125 381.0233459472656 293.0782470703125 380.54998779296875 C 293.4115905761719 380.07000732421875 293.5782470703125 379.413330078125 293.5782470703125 378.5799865722656 C 293.5782470703125 377.7266540527344 293.4115905761719 377.0733337402344 293.0782470703125 376.6199951171875 C 292.74493408203125 376.1666564941406 292.2749328613281 375.94000244140625 291.6682434082031 375.94000244140625 Z" transform="matrix(24.597986221313477, 0, 0, 24.597986221313477, -5848.9560546875, -9046.51171875)" style="fill: rgb(255, 255, 255); white-space: pre; color: rgb(51, 51, 51);"/></svg>