<?xml version="1.0" encoding="utf-8"?>
<svg id="master-artboard" viewBox="0 0 454 396" version="1.1" xmlns="http://www.w3.org/2000/svg" x="0px" y="0px" style="enable-background:new 0 0 850.4 1133.9;" width="454px" height="396px"><rect id="ee-background" x="0" y="0" width="454" height="396" style="fill: white; fill-opacity: 0; pointer-events: none;"/><path d="M 152.3308868408203 159.28038024902344 L 436.22467041015625 159.28038024902344 C 436.22467041015625 159.28038024902344 444.6576843261719 155.88780212402344 462.75140380859375 170.02352905273438 C 480.8451232910156 184.1592559814453 453.7044677734375 186.4209747314453 537.3880004882812 186.4209747314453 L 802.6923217773438 186.4209747314453 C 802.6923217773438 186.4209747314453 826.8876953125 185.2901153564453 844.9813842773438 208.4727020263672 C 863.0750732421875 231.65528869628906 857.4208374023438 247.4873046875 857.9862670898438 270.1044616699219 L 857.9862670898438 742.2461547851562 C 857.9862670898438 742.2461547851562 860.8134155273438 767.1165771484375 847.8085327148438 789.1682739257812 C 834.8036499023438 811.219970703125 813.8827514648438 812.916259765625 786.1767578125 814.047119140625 L 152.88722229003906 814.047119140625 C 152.88722229003906 814.047119140625 131.4100341796875 805.5656127929688 122.3631591796875 793.126220703125 C 113.3162841796875 780.6868286132812 107.66200256347656 772.770751953125 106.53114318847656 751.8499145507812 L 106.53114318847656 220.3455047607422 C 106.53114318847656 220.3455047607422 109.35829162597656 191.5098114013672 121.7977294921875 177.9395294189453 C 134.23716735839844 164.36924743652344 152.3308868408203 159.28038024902344 152.3308868408203 159.28038024902344 Z" style="fill: rgb(219, 186, 0); fill-opacity: 1; stroke: rgb(219, 186, 0); stroke-opacity: 1; stroke-width: 1; paint-order: fill;" transform="matrix(0.5938302874565125, 0, 0, 0.5938302874565125, -59.539746699804, -91.39943295450814)"/><path d="M 132.82308959960938 347.8681640625 L 406.25506591796875 347.8681640625 C 406.25506591796875 347.8681640625 434.5687561035156 345.3370666503906 443.81475830078125 324.5335388183594 C 453.0607604980469 303.7300109863281 447.281982421875 319.9105529785156 455.37225341796875 288.7052307128906 L 785.1876831054688 288.7052307128906 C 785.1876831054688 288.7052307128906 804.9873657226562 288.12738037109375 817.1227416992188 307.197265625 C 829.2581176757812 326.26715087890625 826.9465942382812 318.7547912597656 833.881103515625 340.1361999511719 L 833.881103515625 769.49853515625 C 833.881103515625 769.49853515625 835.0368041992188 788.5680541992188 817.7005615234375 803.0149536132812 C 800.3643188476562 817.4618530273438 806.1431274414062 821.5070190429688 763.9581298828125 822.0848999023438 L 135.22225952148438 822.0848999023438 C 135.22225952148438 822.0848999023438 116.15899658203125 818.039794921875 106.33509826660156 806.4822387695312 C 96.51119995117188 794.9246826171875 84.95368194580078 789.1459350585938 82.06430053710938 753.8955078125 L 82.06430053710938 400.2121887207031 C 82.06430053710938 400.2121887207031 88.99880981445312 377.12030029296875 98.24482727050781 367.874267578125 C 107.4908447265625 358.62823486328125 130.60589599609375 347.6485900878906 132.82308959960938 347.8681640625 Z" style="fill: rgb(252, 214, 0); fill-opacity: 1; stroke: rgb(252, 214, 0); stroke-opacity: 1; stroke-width: 1; paint-order: fill;" transform="matrix(0.5938305258750916, 0, 0, 0.5938305258750916, -45.0105718951165, -108.75551205607064)"/><path d="M 244.2607421875 372.9200134277344 L 246.82073974609375 372.9200134277344 C 248.02740478515625 372.9200134277344 248.90074157714844 373.1000061035156 249.44073486328125 373.4599914550781 C 249.98074340820312 373.82000732421875 250.25074768066406 374.3900146484375 250.25074768066406 375.1700134277344 C 250.25074768066406 375.7033386230469 250.10073852539062 376.14666748046875 249.8007354736328 376.5 C 249.50074768066406 376.8466796875 249.0607452392578 377.0733337402344 248.48074340820312 377.17999267578125 L 248.48074340820312 377.239990234375 C 249.86074829101562 377.47332763671875 250.5507354736328 378.20001220703125 250.5507354736328 379.4200134277344 C 250.5507354736328 380.2266540527344 250.27740478515625 380.8599853515625 249.73074340820312 381.32000732421875 C 249.18408203125 381.7733459472656 248.4174041748047 382 247.4307403564453 382 L 244.2607421875 382 L 244.2607421875 372.9200134277344 M 245.32073974609375 376.80999755859375 L 247.0507354736328 376.80999755859375 C 247.7974090576172 376.80999755859375 248.33407592773438 376.69000244140625 248.66073608398438 376.45001220703125 C 248.98741149902344 376.2166748046875 249.15074157714844 375.8233337402344 249.15074157714844 375.2699890136719 C 249.15074157714844 374.7633361816406 248.9707489013672 374.39666748046875 248.61074829101562 374.1700134277344 C 248.24407958984375 373.9433288574219 247.66407775878906 373.8299865722656 246.87074279785156 373.8299865722656 L 245.32073974609375 373.8299865722656 L 245.32073974609375 376.80999755859375 M 245.32073974609375 377.70001220703125 L 245.32073974609375 381.1000061035156 L 247.2107391357422 381.1000061035156 C 247.94407653808594 381.1000061035156 248.49740600585938 380.9566650390625 248.87074279785156 380.6700134277344 C 249.23741149902344 380.3900146484375 249.42074584960938 379.9466552734375 249.42074584960938 379.3399963378906 C 249.42074584960938 378.7799987792969 249.23074340820312 378.3666687011719 248.85073852539062 378.1000061035156 C 248.4707489013672 377.8333435058594 247.89407348632812 377.70001220703125 247.12074279785156 377.70001220703125 L 245.32073974609375 377.70001220703125 Z" transform="matrix(26.84857940673828, 0, 0, 26.84857940673828, -6405.17041015625, -9899.1728515625)" style="fill: rgb(255, 255, 255); white-space: pre; color: rgb(255, 255, 255);"/></svg>